<svg t="1668411429488" class="icon" viewBox="0 0 1024 1024" version="1.1" xmlns="http://www.w3.org/2000/svg" p-id="8419" width="200" height="200"><path d="M739.552 418.992c0-0.464 0.128-0.896 0.128-1.36v-100.688a236.8 236.8 0 1 0-473.6 0v100.688a23.008 23.008 0 0 0 0.352 3.504 132.608 132.608 0 0 0-106.992 129.904v260.368a132.576 132.576 0 0 0 132.432 132.432h440.224a132.576 132.576 0 0 0 132.416-132.432V551.04a132.464 132.464 0 0 0-124.96-132.048z m-425.456-102.048a188.8 188.8 0 1 1 377.6 0v100.688c0 0.336 0 0.656 0.096 0.992H313.984c0-0.336 0.112-0.656 0.112-0.992z m502.4 494.4a84.512 84.512 0 0 1-84.416 84.432H291.888a84.528 84.528 0 0 1-84.432-84.432V550.976a84.528 84.528 0 0 1 84.432-84.416h440.224a84.512 84.512 0 0 1 84.416 84.416z" fill="#1296db" p-id="8420"></path><path d="M513.968 603.792a96.4 96.4 0 1 0 96.384 96.384 96.48 96.48 0 0 0-96.384-96.384z m0 144.784a48.4 48.4 0 1 1 48.384-48.4 48.448 48.448 0 0 1-48.384 48.4z" fill="#1296db" p-id="8421"></path></svg>