<svg t="1668411783190" class="icon" viewBox="0 0 1024 1024" version="1.1" xmlns="http://www.w3.org/2000/svg" p-id="12107" width="200" height="200"><path d="M694.857143 234.057143m0 43.885714l0 0q0 43.885714-43.885714 43.885714l-424.228572 0q-43.885714 0-43.885714-43.885714l0 0q0-43.885714 43.885714-43.885714l424.228572 0q43.885714 0 43.885714 43.885714Z" p-id="12108" fill="#1296db"></path><path d="M548.571429 468.114286m0 43.885714l0 0q0 43.885714-43.885715 43.885714l-277.942857 0q-43.885714 0-43.885714-43.885714l0 0q0-43.885714 43.885714-43.885714l277.942857 0q43.885714 0 43.885715 43.885714Z" p-id="12109" fill="#1296db"></path><path d="M402.285714 702.171429m0 43.885714l0 0q0 43.885714-43.885714 43.885714l-131.657143 0q-43.885714 0-43.885714-43.885714l0 0q0-43.885714 43.885714-43.885714l131.657143 0q43.885714 0 43.885714 43.885714Z" p-id="12110" fill="#1296db"></path><path d="M365.714286 980.114286m-43.885715 0a43.885714 43.885714 0 1 0 87.771429 0 43.885714 43.885714 0 1 0-87.771429 0Z" p-id="12111" fill="#1296db"></path><path d="M833.828571 512m-43.885714 0a43.885714 43.885714 0 1 0 87.771429 0 43.885714 43.885714 0 1 0-87.771429 0Z" p-id="12112" fill="#1296db"></path><path d="M804.571429 0H73.142857a73.142857 73.142857 0 0 0-73.142857 73.142857v877.714286a73.142857 73.142857 0 0 0 73.142857 73.142857h292.571429v-87.771429H87.771429V87.771429h702.171428V512H877.714286V73.142857a73.142857 73.142857 0 0 0-73.142857-73.142857zM710.948571 860.891429a79.725714 79.725714 0 0 0 5.12 21.942857 59.977143 59.977143 0 0 0 11.702858 18.285714 51.2 51.2 0 0 0 18.285714 12.434286 55.588571 55.588571 0 0 0 43.154286 0 45.348571 45.348571 0 0 0 18.285714-12.434286 54.857143 54.857143 0 0 0 17.554286-39.497143 53.394286 53.394286 0 0 0-5.12-21.942857 57.051429 57.051429 0 0 0-73.142858-30.72 56.32 56.32 0 0 0-29.988571 30.72 73.142857 73.142857 0 0 0-5.851429 21.211429z" p-id="12113" fill="#1296db"></path><path d="M1019.611429 836.754286s0-6.582857-62.171429-63.634286a269.165714 269.165714 0 0 0-225.28-73.142857 250.148571 250.148571 0 0 0-106.057143 40.228571 455.68 455.68 0 0 0-83.382857 73.142857 133.851429 133.851429 0 0 0-27.062857 30.72 53.394286 53.394286 0 0 0 0 46.08l39.497143 38.765715a310.125714 310.125714 0 0 0 206.262857 95.085714A284.525714 284.525714 0 0 0 950.857143 950.857143a430.08 430.08 0 0 0 65.828571-73.142857 53.394286 53.394286 0 0 0 0-42.422857z m-251.611429 138.24a114.102857 114.102857 0 1 1 114.102857-114.102857 114.102857 114.102857 0 0 1-114.102857 114.102857z" p-id="12114" fill="#1296db"></path></svg>