<svg t="1667558939470" class="icon" viewBox="0 0 1024 1024" version="1.1" xmlns="http://www.w3.org/2000/svg" p-id="15176" width="200" height="200"><path d="M512 800c-247.42 0-448-71.63-448-160v160c0 88.37 200.58 160 448 160s448-71.63 448-160V640c0 88.37-200.58 160-448 160z" p-id="15177" fill="#1296db"></path><path d="M512 608c-247.42 0-448-71.63-448-160v160c0 88.37 200.58 160 448 160s448-71.63 448-160V448c0 88.37-200.58 160-448 160z" p-id="15178" fill="#1296db"></path><path d="M512 416c-247.42 0-448-71.63-448-160v160c0 88.37 200.58 160 448 160s448-71.63 448-160V256c0 88.37-200.58 160-448 160z" p-id="15179" fill="#1296db"></path><path d="M64 224a448 160 0 1 0 896 0 448 160 0 1 0-896 0Z" p-id="15180" fill="#1296db"></path></svg>