<svg t="1667558875761" class="icon" viewBox="0 0 1028 1024" version="1.1" xmlns="http://www.w3.org/2000/svg" p-id="15012" width="200" height="200"><path d="M995.128239 375.66732a33.442195 33.442195 0 0 1-33.442195-33.442195v-84.608752a33.442195 33.442195 0 0 1 66.884389 0v84.608752a33.442195 33.442195 0 0 1-33.442194 33.442195z" fill="#494949" p-id="15013"></path><path d="M966.145003 1024H62.313956A62.42543 62.42543 0 0 1 0 961.57457V62.42543A62.42543 62.42543 0 0 1 62.313956 0h903.831047a62.42543 62.42543 0 0 1 62.42543 62.42543V167.210973a33.442195 33.442195 0 1 1-66.884389 0V66.884389H66.884389v890.231222h894.801655v-490.485522a33.442195 33.442195 0 0 1 66.884389 0v494.944481a62.42543 62.42543 0 0 1-62.42543 62.42543z" fill="#E84842" p-id="15014"></path><path d="M966.145003 1024H62.313956A62.42543 62.42543 0 0 1 0 961.57457V62.42543A62.42543 62.42543 0 0 1 62.313956 0h903.831047a62.42543 62.42543 0 0 1 62.42543 62.42543V167.210973a33.442195 33.442195 0 1 1-66.884389 0V66.884389H66.884389v890.231222h894.801655V530.281733a33.442195 33.442195 0 0 1 66.884389 0v431.292837a62.42543 62.42543 0 0 1-62.42543 62.42543z" fill="#FFE164" p-id="15015"></path><path d="M966.145003 1024H62.313956A62.42543 62.42543 0 0 1 0 961.57457V62.42543A62.42543 62.42543 0 0 1 62.313956 0h903.831047a62.42543 62.42543 0 0 1 62.42543 62.42543V167.210973a33.442195 33.442195 0 1 1-66.884389 0V66.884389H66.884389v890.231222h894.801655V586.018724a33.442195 33.442195 0 0 1 66.884389 0v375.555846a62.42543 62.42543 0 0 1-62.42543 62.42543z" fill="#437DFF" p-id="15016"></path><path d="M966.145003 1024H62.313956A62.42543 62.42543 0 0 1 0 961.57457V62.42543A62.42543 62.42543 0 0 1 62.313956 0h903.831047a62.42543 62.42543 0 0 1 62.42543 62.42543V167.210973a33.442195 33.442195 0 1 1-66.884389 0V66.884389H66.884389v890.231222h894.801655v-300.979752a33.442195 33.442195 0 0 1 66.884389 0v305.438711a62.42543 62.42543 0 0 1-62.42543 62.42543z" fill="#494949" p-id="15017"></path><path d="M854.002177 862.362726H174.568256a33.442195 33.442195 0 0 1-33.442195-33.442195V195.079469a33.442195 33.442195 0 0 1 66.88439 0v600.398868h646.549096a33.442195 33.442195 0 0 1 0 66.884389z" fill="#FFE164" p-id="15018"></path><path d="M313.353364 765.603309a33.442195 33.442195 0 0 1-33.442195-33.442194V380.460701a33.442195 33.442195 0 1 1 66.884389 0v351.700414a33.442195 33.442195 0 0 1-33.442194 33.442194z" fill="#E84842" p-id="15019"></path><path d="M462.059656 765.603309a33.442195 33.442195 0 0 1-33.442195-33.442194V495.613325a33.442195 33.442195 0 1 1 66.88439 0v236.54779a33.442195 33.442195 0 0 1-33.442195 33.442194z" fill="#437DFF" p-id="15020"></path><path d="M610.654474 765.603309a33.442195 33.442195 0 0 1-33.442194-33.442194V428.060091a33.442195 33.442195 0 0 1 66.884389 0v304.101024a33.442195 33.442195 0 0 1-33.442195 33.442194z" fill="#E84842" p-id="15021"></path><path d="M759.249292 765.603309a33.442195 33.442195 0 0 1-33.442194-33.442194V300.979752a33.442195 33.442195 0 0 1 66.884389 0v431.181363a33.442195 33.442195 0 0 1-33.442195 33.442194z" fill="#437DFF" p-id="15022"></path></svg>