<svg t="1668059670466" class="icon" viewBox="0 0 1024 1024" version="1.1" xmlns="http://www.w3.org/2000/svg" p-id="10859" width="200" height="200"><path d="M128 96h768a64 64 0 0 1 64 64v128a64 64 0 0 1-64 64H128a64 64 0 0 1-64-64V160a64 64 0 0 1 64-64z m32 64a32 32 0 0 0-32 32v64a32 32 0 0 0 32 32h704a32 32 0 0 0 32-32V192a32 32 0 0 0-32-32H160z m-32 224h768a64 64 0 0 1 64 64v128a64 64 0 0 1-64 64H128a64 64 0 0 1-64-64v-128a64 64 0 0 1 64-64z m32 64a32 32 0 0 0-32 32v64a32 32 0 0 0 32 32h704a32 32 0 0 0 32-32v-64a32 32 0 0 0-32-32H160z m608 32h32a32 32 0 0 1 0 64h-32a32 32 0 0 1 0-64zM128 672h768a64 64 0 0 1 64 64v128a64 64 0 0 1-64 64H128a64 64 0 0 1-64-64v-128a64 64 0 0 1 64-64z m32 64a32 32 0 0 0-32 32v64a32 32 0 0 0 32 32h704a32 32 0 0 0 32-32v-64a32 32 0 0 0-32-32H160z m608 32h32a32 32 0 0 1 0 64h-32a32 32 0 0 1 0-64z m0-576h32a32 32 0 0 1 0 64h-32a32 32 0 0 1 0-64z" fill="#e6e6e6" p-id="10860"></path></svg>