<svg t="1666945586127" class="icon" viewBox="0 0 1024 1024" version="1.1" xmlns="http://www.w3.org/2000/svg" p-id="13763" width="200" height="200"><path d="M400.91 197.48v203h-203v-203h203m43-86h-289c-23.75 0-43 19.25-43 43v289c0 23.75 19.25 43 43 43h289c23.75 0 43-19.25 43-43v-289c0-23.75-19.26-43-43-43zM400.91 623.52v203h-203v-203h203m43-86h-289c-23.75 0-43 19.25-43 43v289c0 23.75 19.25 43 43 43h289c23.75 0 43-19.25 43-43v-289c0-23.75-19.26-43-43-43zM826.09 623.52v203h-203v-203h203m43-86h-289c-23.75 0-43 19.25-43 43v289c0 23.75 19.25 43 43 43h289c23.75 0 43-19.25 43-43v-289c0-23.75-19.25-43-43-43zM896.13 275.39v0.14h-17.02c-8.48-0.48-15.8-6.11-18.44-14.19l-9.79-24.97a22.135 22.135 0 0 1 3.33-23.62l12.06-12.55c5.66-5.97 5.66-15.31 0-21.28l-20.07-21.28c-0.2-0.21-0.41-0.42-0.62-0.62-5.54-5.2-14.25-4.92-19.45 0.62l-12.06 12.62c-6.01 5.85-15.07 7.25-22.55 3.48l-23.69-10.28a21.286 21.286 0 0 1-13.55-19.29v-17.52c0.12-7.99-6.2-14.59-14.19-14.82h-28.37c-7.99 0.23-14.31 6.83-14.19 14.82v17.52a21.275 21.275 0 0 1-13.62 19.15l-23.76 10.28a19.48 19.48 0 0 1-22.48-3.48l-12.06-12.62c-0.2-0.21-0.41-0.42-0.62-0.62-5.54-5.2-14.25-4.92-19.45 0.62l-20.07 21.28c-5.69 5.95-5.69 15.33 0 21.28l12.06 12.62a22.065 22.065 0 0 1 3.4 23.62l-9.79 24.97a20.73 20.73 0 0 1-18.44 14.19h-17.02c-8 0.19-14.34 6.82-14.19 14.82v29.79c-0.16 8.02 6.17 14.66 14.19 14.89h17.02c8.45 0.51 15.74 6.14 18.37 14.19l9.79 24.9a22.223 22.223 0 0 1-3.4 23.62l-12.06 12.62c-5.62 5.98-5.62 15.3 0 21.28l20.07 21.28c0.2 0.21 0.41 0.42 0.62 0.62 5.54 5.2 14.25 4.92 19.45-0.62l12.06-12.62a19.512 19.512 0 0 1 22.48-3.48l23.83 10.28a21.286 21.286 0 0 1 13.55 19.29V484.13c-0.19 8.03 6.16 14.69 14.19 14.89h28.37c8.01-0.23 14.34-6.88 14.19-14.89v-17.8c0.2-8.56 5.51-16.16 13.48-19.29l23.83-10.28c7.49-3.77 16.55-2.38 22.55 3.48l12.06 12.62 0.01 0.01c5.54 5.54 14.52 5.53 20.06-0.01l20.07-21.28c5.66-5.96 5.66-15.31 0-21.28l-12.06-12.62a22.178 22.178 0 0 1-3.33-23.62l9.79-24.97a20.78 20.78 0 0 1 18.44-14.18h17.02c8.01-0.23 14.34-6.88 14.19-14.89v-29.79c0.15-8.02-6.19-14.65-14.19-14.84z m-92.29 33.2c-1.96 41.08-36.85 72.8-77.94 70.84h-0.04c-40.1-0.95-71.84-34.23-70.89-74.33 0-1.2 0.03-2.4 0.08-3.6 1.96-41.08 36.85-72.8 77.94-70.84 41.09 1.96 72.81 36.85 70.85 77.93z" fill="#cdcdcd" p-id="13764"></path></svg>