<svg t="1668059468195" class="icon" viewBox="0 0 1024 1024" version="1.1" xmlns="http://www.w3.org/2000/svg" p-id="9073" width="200" height="200"><path d="M359.552 247.744v174.592c0 2.112-1.408 3.52-4.224 3.52-2.112 0-3.52-2.112-4.224-4.928C339.84 363.904 306.048 275.2 273.664 275.2c-17.6 0-19.008 14.784-19.008 33.088 0 34.496 9.152 68.992 61.248 179.52 49.28 104.192 54.912 127.424 54.912 183.04 0 74.624-38.72 97.152-64.768 97.152-19.008 0-30.976-7.744-39.424-13.376-7.744-4.928-11.968-7.04-14.08-7.04-2.816 0-8.448 4.928-22.528 15.488-2.816 2.112-5.632 4.928-8.448 4.928-2.816 0-3.52-1.408-3.52-3.52v-177.408c0-2.112 0.704-4.928 3.52-4.928 2.112 0 3.52 2.816 4.224 4.928 12.672 56.32 34.496 145.728 76.032 145.728 13.376 0 20.416-14.784 20.416-36.608 0-47.168-21.12-98.56-61.248-183.04-38.016-80.256-52.096-133.76-52.096-185.152 0-66.88 28.864-88 64.768-88 13.376 0 28.864 7.744 39.424 16.192 3.52 2.112 7.744 4.224 10.56 4.224 2.816 0 9.856-4.928 16.192-11.264 6.336-5.632 10.56-9.152 14.784-9.152 3.52 0 4.928 3.52 4.928 7.744z m141.504 27.456c-20.416 0-35.904 59.136-35.904 215.424 0 73.216 2.816 126.72 7.04 173.888 7.04-7.04 15.488-12.672 26.048-12.672 10.56 0 21.824 4.224 30.272 14.784 5.632-35.904 9.152-93.632 9.152-176 0-156.288-15.488-215.424-36.608-215.424z m0-35.2c85.184 0 94.336 148.544 94.336 249.92 0 83.072-3.52 171.072-26.752 224.576 2.816 4.928 9.856 8.448 20.416 8.448 11.264 0 25.344-22.528 28.16-40.832 0.704-4.224 7.04-4.224 7.04 0 0 42.944-17.6 85.888-47.168 85.888-14.784 0-26.752-5.632-36.608-13.376-9.856 8.448-23.232 13.376-39.424 13.376-84.48 0-93.632-145.024-93.632-278.08 0-101.376 9.152-249.92 93.632-249.92z m0 492.8c6.336 0 11.264-4.928 16.192-18.304-4.224-19.712-11.264-33.792-24.64-33.792-7.744 0-14.08 6.336-14.08 16.192 0 18.304 13.376 35.904 22.528 35.904z m164.032-15.488V290.688c0-8.448-1.408-14.784-6.336-19.712l-21.12-20.416c-1.408-2.112-4.928-4.224-4.928-6.336s1.408-4.224 4.224-4.224h110.528c2.816 0 4.224 2.112 4.224 4.224s-3.52 4.224-4.928 6.336l-21.12 20.416c-4.928 4.928-6.336 11.264-6.336 19.712V732.8h28.16c8.448 0 15.488-2.112 18.304-10.56l43.648-136.576c1.408-2.816 1.408-4.928 4.224-4.928 2.112 0 3.52 2.112 3.52 4.928v172.48c0 6.336-2.112 9.856-7.744 9.856h-172.48c-2.816 0-4.224-2.112-4.224-4.224s3.52-3.52 4.928-6.336l21.12-20.416c4.928-4.928 6.336-11.264 6.336-19.712zM128 96h768a32 32 0 0 1 32 32v768a32 32 0 0 1-32 32H128a32 32 0 0 1-32-32V128a32 32 0 0 1 32-32z m0 32v768h768V128H128z" p-id="9074" fill="#1296db"></path></svg>